<svg xmlns="http://www.w3.org/2000/svg" width="1240" height="610" viewBox="0 0 1240 610" role="img" aria-labelledby="title">
<title id="title">Actual geographic cells traversed across rHEALPix seams</title>
<style>
  :root { color-scheme: light dark; }
  .ink { fill:#172033; } .muted { fill:#526079; } .line { stroke:#27364f; }
  .panel { fill:#f7f9fc; stroke:#c8d2e2; } .grid { stroke:#93a4bd; }
  .blue { fill:#4c78a8; } .teal { fill:#2a9d8f; } .gold { fill:#e9c46a; }
  .coral { fill:#e76f51; } .violet { fill:#7c6bb2; }
  .stroke-blue { stroke:#4c78a8; } .stroke-teal { stroke:#2a9d8f; }
  .stroke-gold { stroke:#c99a27; } .stroke-coral { stroke:#e76f51; }
  .stroke-violet { stroke:#7c6bb2; }
  text { font-family:Inter,Segoe UI,Arial,sans-serif; }
  @media (prefers-color-scheme: dark) {
    .ink { fill:#e6edf3; } .muted { fill:#a8b3c5; } .line { stroke:#c4cedd; }
    .panel { fill:#161b22; stroke:#445168; } .grid { stroke:#66758c; }
  }
</style>
<defs><marker id="arrowhead" markerWidth="9" markerHeight="7" refX="8" refY="3.5" orient="auto"><polygon points="0 0, 9 3.5, 0 7" fill="#172033"/></marker>
<clipPath id="map-clip-0"><rect x="35" y="105" width="370" height="350" rx="8"/></clipPath>
<clipPath id="map-clip-1"><rect x="440" y="105" width="370" height="350" rx="8"/></clipPath>
<clipPath id="map-clip-2"><rect x="845" y="105" width="370" height="350" rx="8"/></clipPath>
</defs>
<text x="620.0" y="37.0" class="ink" text-anchor="middle" font-size="25" font-weight="700">Edge traversal using actual geographic cell polygons</text>
<rect x="27.0" y="70.0" width="386.0" height="450.0" rx="12.0" class="panel"/>
<text x="220.0" y="96.0" class="ink" text-anchor="middle" font-size="17" font-weight="700">equatorial face seam</text>
<g clip-path="url(#map-clip-0)">
<line x1="6.5" y1="393.8" x2="6.5" y2="166.2" class="grid" stroke-width="0.7" stroke-dasharray="4 5"/>
<line x1="77.7" y1="393.8" x2="77.7" y2="166.2" class="grid" stroke-width="0.7" stroke-dasharray="4 5"/>
<line x1="148.8" y1="393.8" x2="148.8" y2="166.2" class="grid" stroke-width="0.7" stroke-dasharray="4 5"/>
<line x1="220.0" y1="393.8" x2="220.0" y2="166.2" class="grid" stroke-width="0.7" stroke-dasharray="4 5"/>
<line x1="291.2" y1="393.8" x2="291.2" y2="166.2" class="grid" stroke-width="0.7" stroke-dasharray="4 5"/>
<line x1="362.3" y1="393.8" x2="362.3" y2="166.2" class="grid" stroke-width="0.7" stroke-dasharray="4 5"/>
<line x1="433.5" y1="393.8" x2="433.5" y2="166.2" class="grid" stroke-width="0.7" stroke-dasharray="4 5"/>
<line x1="35.0" y1="422.3" x2="405.0" y2="422.3" class="grid" stroke-width="0.7" stroke-dasharray="4 5"/>
<line x1="35.0" y1="351.2" x2="405.0" y2="351.2" class="grid" stroke-width="0.7" stroke-dasharray="4 5"/>
<line x1="35.0" y1="280.0" x2="405.0" y2="280.0" class="grid" stroke-width="0.7" stroke-dasharray="4 5"/>
<line x1="35.0" y1="208.8" x2="405.0" y2="208.8" class="grid" stroke-width="0.7" stroke-dasharray="4 5"/>
<line x1="35.0" y1="137.7" x2="405.0" y2="137.7" class="grid" stroke-width="0.7" stroke-dasharray="4 5"/>
<polygon points="77.7,188.2 82.4,188.2 87.2,188.2 91.9,188.2 96.7,188.2 101.4,188.2 106.2,188.2 110.9,188.2 115.6,188.2 120.4,188.2 125.1,188.2 129.9,188.2 134.6,188.2 139.4,188.2 144.1,188.2 148.8,188.2 148.8,192.4 148.8,196.5 148.8,200.6 148.8,204.8 148.8,208.9 148.8,213.0 148.8,217.1 148.8,221.2 148.8,225.2 148.8,229.3 148.8,233.4 148.8,237.5 148.8,241.5 148.8,245.6 148.8,249.6 144.1,249.6 139.4,249.6 134.6,249.6 129.9,249.6 125.1,249.6 120.4,249.6 115.6,249.6 110.9,249.6 106.2,249.6 101.4,249.6 96.7,249.6 91.9,249.6 87.2,249.6 82.4,249.6 77.7,249.6 77.7,245.6 77.7,241.5 77.7,237.5 77.7,233.4 77.7,229.3 77.7,225.2 77.7,221.2 77.7,217.1 77.7,213.0 77.7,208.9 77.7,204.8 77.7,200.6 77.7,196.5 77.7,192.4" fill="#93a4bd" opacity="0.10" stroke="#75849a" stroke-width="0.8"/>
<polygon points="148.8,188.2 153.6,188.2 158.3,188.2 163.1,188.2 167.8,188.2 172.6,188.2 177.3,188.2 182.1,188.2 186.8,188.2 191.5,188.2 196.3,188.2 201.0,188.2 205.8,188.2 210.5,188.2 215.3,188.2 220.0,188.2 220.0,192.4 220.0,196.5 220.0,200.6 220.0,204.8 220.0,208.9 220.0,213.0 220.0,217.1 220.0,221.2 220.0,225.2 220.0,229.3 220.0,233.4 220.0,237.5 220.0,241.5 220.0,245.6 220.0,249.6 215.3,249.6 210.5,249.6 205.8,249.6 201.0,249.6 196.3,249.6 191.5,249.6 186.8,249.6 182.1,249.6 177.3,249.6 172.6,249.6 167.8,249.6 163.1,249.6 158.3,249.6 153.6,249.6 148.8,249.6 148.8,245.6 148.8,241.5 148.8,237.5 148.8,233.4 148.8,229.3 148.8,225.2 148.8,221.2 148.8,217.1 148.8,213.0 148.8,208.9 148.8,204.8 148.8,200.6 148.8,196.5 148.8,192.4" fill="#93a4bd" opacity="0.10" stroke="#75849a" stroke-width="0.8"/>
<polygon points="6.5,249.6 11.3,249.6 16.0,249.6 20.8,249.6 25.5,249.6 30.3,249.6 35.0,249.6 39.7,249.6 44.5,249.6 49.2,249.6 54.0,249.6 58.7,249.6 63.5,249.6 68.2,249.6 72.9,249.6 77.7,249.6 77.7,253.7 77.7,257.7 77.7,261.8 77.7,265.8 77.7,269.9 77.7,273.9 77.7,278.0 77.7,282.0 77.7,286.1 77.7,290.1 77.7,294.2 77.7,298.2 77.7,302.3 77.7,306.3 77.7,310.4 72.9,310.4 68.2,310.4 63.5,310.4 58.7,310.4 54.0,310.4 49.2,310.4 44.5,310.4 39.7,310.4 35.0,310.4 30.3,310.4 25.5,310.4 20.8,310.4 16.0,310.4 11.3,310.4 6.5,310.4 6.5,306.3 6.5,302.3 6.5,298.2 6.5,294.2 6.5,290.1 6.5,286.1 6.5,282.0 6.5,278.0 6.5,273.9 6.5,269.9 6.5,265.8 6.5,261.8 6.5,257.7 6.5,253.7" fill="#93a4bd" opacity="0.10" stroke="#75849a" stroke-width="0.8"/>
<polygon points="77.7,249.6 82.4,249.6 87.2,249.6 91.9,249.6 96.7,249.6 101.4,249.6 106.2,249.6 110.9,249.6 115.6,249.6 120.4,249.6 125.1,249.6 129.9,249.6 134.6,249.6 139.4,249.6 144.1,249.6 148.8,249.6 148.8,253.7 148.8,257.7 148.8,261.8 148.8,265.8 148.8,269.9 148.8,273.9 148.8,278.0 148.8,282.0 148.8,286.1 148.8,290.1 148.8,294.2 148.8,298.2 148.8,302.3 148.8,306.3 148.8,310.4 144.1,310.4 139.4,310.4 134.6,310.4 129.9,310.4 125.1,310.4 120.4,310.4 115.6,310.4 110.9,310.4 106.2,310.4 101.4,310.4 96.7,310.4 91.9,310.4 87.2,310.4 82.4,310.4 77.7,310.4 77.7,306.3 77.7,302.3 77.7,298.2 77.7,294.2 77.7,290.1 77.7,286.1 77.7,282.0 77.7,278.0 77.7,273.9 77.7,269.9 77.7,265.8 77.7,261.8 77.7,257.7 77.7,253.7" fill="#93a4bd" opacity="0.10" stroke="#75849a" stroke-width="0.8"/>
<polygon points="148.8,249.6 153.6,249.6 158.3,249.6 163.1,249.6 167.8,249.6 172.6,249.6 177.3,249.6 182.1,249.6 186.8,249.6 191.5,249.6 196.3,249.6 201.0,249.6 205.8,249.6 210.5,249.6 215.3,249.6 220.0,249.6 220.0,253.7 220.0,257.7 220.0,261.8 220.0,265.8 220.0,269.9 220.0,273.9 220.0,278.0 220.0,282.0 220.0,286.1 220.0,290.1 220.0,294.2 220.0,298.2 220.0,302.3 220.0,306.3 220.0,310.4 215.3,310.4 210.5,310.4 205.8,310.4 201.0,310.4 196.3,310.4 191.5,310.4 186.8,310.4 182.1,310.4 177.3,310.4 172.6,310.4 167.8,310.4 163.1,310.4 158.3,310.4 153.6,310.4 148.8,310.4 148.8,306.3 148.8,302.3 148.8,298.2 148.8,294.2 148.8,290.1 148.8,286.1 148.8,282.0 148.8,278.0 148.8,273.9 148.8,269.9 148.8,265.8 148.8,261.8 148.8,257.7 148.8,253.7" fill="#93a4bd" opacity="0.10" stroke="#75849a" stroke-width="0.8"/>
<polygon points="77.7,310.4 82.4,310.4 87.2,310.4 91.9,310.4 96.7,310.4 101.4,310.4 106.2,310.4 110.9,310.4 115.6,310.4 120.4,310.4 125.1,310.4 129.9,310.4 134.6,310.4 139.4,310.4 144.1,310.4 148.8,310.4 148.8,314.4 148.8,318.5 148.8,322.5 148.8,326.6 148.8,330.7 148.8,334.8 148.8,338.8 148.8,342.9 148.8,347.0 148.8,351.1 148.8,355.2 148.8,359.4 148.8,363.5 148.8,367.6 148.8,371.8 144.1,371.8 139.4,371.8 134.6,371.8 129.9,371.8 125.1,371.8 120.4,371.8 115.6,371.8 110.9,371.8 106.2,371.8 101.4,371.8 96.7,371.8 91.9,371.8 87.2,371.8 82.4,371.8 77.7,371.8 77.7,367.6 77.7,363.5 77.7,359.4 77.7,355.2 77.7,351.1 77.7,347.0 77.7,342.9 77.7,338.8 77.7,334.8 77.7,330.7 77.7,326.6 77.7,322.5 77.7,318.5 77.7,314.4" fill="#93a4bd" opacity="0.10" stroke="#75849a" stroke-width="0.8"/>
<polygon points="148.8,310.4 153.6,310.4 158.3,310.4 163.1,310.4 167.8,310.4 172.6,310.4 177.3,310.4 182.1,310.4 186.8,310.4 191.5,310.4 196.3,310.4 201.0,310.4 205.8,310.4 210.5,310.4 215.3,310.4 220.0,310.4 220.0,314.4 220.0,318.5 220.0,322.5 220.0,326.6 220.0,330.7 220.0,334.8 220.0,338.8 220.0,342.9 220.0,347.0 220.0,351.1 220.0,355.2 220.0,359.4 220.0,363.5 220.0,367.6 220.0,371.8 215.3,371.8 210.5,371.8 205.8,371.8 201.0,371.8 196.3,371.8 191.5,371.8 186.8,371.8 182.1,371.8 177.3,371.8 172.6,371.8 167.8,371.8 163.1,371.8 158.3,371.8 153.6,371.8 148.8,371.8 148.8,367.6 148.8,363.5 148.8,359.4 148.8,355.2 148.8,351.1 148.8,347.0 148.8,342.9 148.8,338.8 148.8,334.8 148.8,330.7 148.8,326.6 148.8,322.5 148.8,318.5 148.8,314.4" fill="#93a4bd" opacity="0.10" stroke="#75849a" stroke-width="0.8"/>
<polygon points="220.0,188.2 224.7,188.2 229.5,188.2 234.2,188.2 239.0,188.2 243.7,188.2 248.5,188.2 253.2,188.2 257.9,188.2 262.7,188.2 267.4,188.2 272.2,188.2 276.9,188.2 281.7,188.2 286.4,188.2 291.2,188.2 291.2,192.4 291.2,196.5 291.2,200.6 291.2,204.8 291.2,208.9 291.2,213.0 291.2,217.1 291.2,221.2 291.2,225.2 291.2,229.3 291.2,233.4 291.2,237.5 291.2,241.5 291.2,245.6 291.2,249.6 286.4,249.6 281.7,249.6 276.9,249.6 272.2,249.6 267.4,249.6 262.7,249.6 257.9,249.6 253.2,249.6 248.5,249.6 243.7,249.6 239.0,249.6 234.2,249.6 229.5,249.6 224.7,249.6 220.0,249.6 220.0,245.6 220.0,241.5 220.0,237.5 220.0,233.4 220.0,229.3 220.0,225.2 220.0,221.2 220.0,217.1 220.0,213.0 220.0,208.9 220.0,204.8 220.0,200.6 220.0,196.5 220.0,192.4" fill="#93a4bd" opacity="0.10" stroke="#75849a" stroke-width="0.8"/>
<polygon points="291.2,188.2 295.9,188.2 300.6,188.2 305.4,188.2 310.1,188.2 314.9,188.2 319.6,188.2 324.4,188.2 329.1,188.2 333.8,188.2 338.6,188.2 343.3,188.2 348.1,188.2 352.8,188.2 357.6,188.2 362.3,188.2 362.3,192.4 362.3,196.5 362.3,200.6 362.3,204.8 362.3,208.9 362.3,213.0 362.3,217.1 362.3,221.2 362.3,225.2 362.3,229.3 362.3,233.4 362.3,237.5 362.3,241.5 362.3,245.6 362.3,249.6 357.6,249.6 352.8,249.6 348.1,249.6 343.3,249.6 338.6,249.6 333.8,249.6 329.1,249.6 324.4,249.6 319.6,249.6 314.9,249.6 310.1,249.6 305.4,249.6 300.6,249.6 295.9,249.6 291.2,249.6 291.2,245.6 291.2,241.5 291.2,237.5 291.2,233.4 291.2,229.3 291.2,225.2 291.2,221.2 291.2,217.1 291.2,213.0 291.2,208.9 291.2,204.8 291.2,200.6 291.2,196.5 291.2,192.4" fill="#93a4bd" opacity="0.10" stroke="#75849a" stroke-width="0.8"/>
<polygon points="220.0,249.6 224.7,249.6 229.5,249.6 234.2,249.6 239.0,249.6 243.7,249.6 248.5,249.6 253.2,249.6 257.9,249.6 262.7,249.6 267.4,249.6 272.2,249.6 276.9,249.6 281.7,249.6 286.4,249.6 291.2,249.6 291.2,253.7 291.2,257.7 291.2,261.8 291.2,265.8 291.2,269.9 291.2,273.9 291.2,278.0 291.2,282.0 291.2,286.1 291.2,290.1 291.2,294.2 291.2,298.2 291.2,302.3 291.2,306.3 291.2,310.4 286.4,310.4 281.7,310.4 276.9,310.4 272.2,310.4 267.4,310.4 262.7,310.4 257.9,310.4 253.2,310.4 248.5,310.4 243.7,310.4 239.0,310.4 234.2,310.4 229.5,310.4 224.7,310.4 220.0,310.4 220.0,306.3 220.0,302.3 220.0,298.2 220.0,294.2 220.0,290.1 220.0,286.1 220.0,282.0 220.0,278.0 220.0,273.9 220.0,269.9 220.0,265.8 220.0,261.8 220.0,257.7 220.0,253.7" fill="#93a4bd" opacity="0.10" stroke="#75849a" stroke-width="0.8"/>
<polygon points="291.2,249.6 295.9,249.6 300.6,249.6 305.4,249.6 310.1,249.6 314.9,249.6 319.6,249.6 324.4,249.6 329.1,249.6 333.8,249.6 338.6,249.6 343.3,249.6 348.1,249.6 352.8,249.6 357.6,249.6 362.3,249.6 362.3,253.7 362.3,257.7 362.3,261.8 362.3,265.8 362.3,269.9 362.3,273.9 362.3,278.0 362.3,282.0 362.3,286.1 362.3,290.1 362.3,294.2 362.3,298.2 362.3,302.3 362.3,306.3 362.3,310.4 357.6,310.4 352.8,310.4 348.1,310.4 343.3,310.4 338.6,310.4 333.8,310.4 329.1,310.4 324.4,310.4 319.6,310.4 314.9,310.4 310.1,310.4 305.4,310.4 300.6,310.4 295.9,310.4 291.2,310.4 291.2,306.3 291.2,302.3 291.2,298.2 291.2,294.2 291.2,290.1 291.2,286.1 291.2,282.0 291.2,278.0 291.2,273.9 291.2,269.9 291.2,265.8 291.2,261.8 291.2,257.7 291.2,253.7" fill="#93a4bd" opacity="0.10" stroke="#75849a" stroke-width="0.8"/>
<polygon points="362.3,249.6 367.1,249.6 371.8,249.6 376.5,249.6 381.3,249.6 386.0,249.6 390.8,249.6 395.5,249.6 400.3,249.6 405.0,249.6 409.7,249.6 414.5,249.6 419.2,249.6 424.0,249.6 428.7,249.6 433.5,249.6 433.5,253.7 433.5,257.7 433.5,261.8 433.5,265.8 433.5,269.9 433.5,273.9 433.5,278.0 433.5,282.0 433.5,286.1 433.5,290.1 433.5,294.2 433.5,298.2 433.5,302.3 433.5,306.3 433.5,310.4 428.7,310.4 424.0,310.4 419.2,310.4 414.5,310.4 409.7,310.4 405.0,310.4 400.3,310.4 395.5,310.4 390.8,310.4 386.0,310.4 381.3,310.4 376.5,310.4 371.8,310.4 367.1,310.4 362.3,310.4 362.3,306.3 362.3,302.3 362.3,298.2 362.3,294.2 362.3,290.1 362.3,286.1 362.3,282.0 362.3,278.0 362.3,273.9 362.3,269.9 362.3,265.8 362.3,261.8 362.3,257.7 362.3,253.7" fill="#93a4bd" opacity="0.10" stroke="#75849a" stroke-width="0.8"/>
<polygon points="220.0,310.4 224.7,310.4 229.5,310.4 234.2,310.4 239.0,310.4 243.7,310.4 248.5,310.4 253.2,310.4 257.9,310.4 262.7,310.4 267.4,310.4 272.2,310.4 276.9,310.4 281.7,310.4 286.4,310.4 291.2,310.4 291.2,314.4 291.2,318.5 291.2,322.5 291.2,326.6 291.2,330.7 291.2,334.8 291.2,338.8 291.2,342.9 291.2,347.0 291.2,351.1 291.2,355.2 291.2,359.4 291.2,363.5 291.2,367.6 291.2,371.8 286.4,371.8 281.7,371.8 276.9,371.8 272.2,371.8 267.4,371.8 262.7,371.8 257.9,371.8 253.2,371.8 248.5,371.8 243.7,371.8 239.0,371.8 234.2,371.8 229.5,371.8 224.7,371.8 220.0,371.8 220.0,367.6 220.0,363.5 220.0,359.4 220.0,355.2 220.0,351.1 220.0,347.0 220.0,342.9 220.0,338.8 220.0,334.8 220.0,330.7 220.0,326.6 220.0,322.5 220.0,318.5 220.0,314.4" fill="#93a4bd" opacity="0.10" stroke="#75849a" stroke-width="0.8"/>
<polygon points="291.2,310.4 295.9,310.4 300.6,310.4 305.4,310.4 310.1,310.4 314.9,310.4 319.6,310.4 324.4,310.4 329.1,310.4 333.8,310.4 338.6,310.4 343.3,310.4 348.1,310.4 352.8,310.4 357.6,310.4 362.3,310.4 362.3,314.4 362.3,318.5 362.3,322.5 362.3,326.6 362.3,330.7 362.3,334.8 362.3,338.8 362.3,342.9 362.3,347.0 362.3,351.1 362.3,355.2 362.3,359.4 362.3,363.5 362.3,367.6 362.3,371.8 357.6,371.8 352.8,371.8 348.1,371.8 343.3,371.8 338.6,371.8 333.8,371.8 329.1,371.8 324.4,371.8 319.6,371.8 314.9,371.8 310.1,371.8 305.4,371.8 300.6,371.8 295.9,371.8 291.2,371.8 291.2,367.6 291.2,363.5 291.2,359.4 291.2,355.2 291.2,351.1 291.2,347.0 291.2,342.9 291.2,338.8 291.2,334.8 291.2,330.7 291.2,326.6 291.2,322.5 291.2,318.5 291.2,314.4" fill="#93a4bd" opacity="0.10" stroke="#75849a" stroke-width="0.8"/>
<polygon points="77.7,249.6 82.4,249.6 87.2,249.6 91.9,249.6 96.7,249.6 101.4,249.6 106.2,249.6 110.9,249.6 115.6,249.6 120.4,249.6 125.1,249.6 129.9,249.6 134.6,249.6 139.4,249.6 144.1,249.6 148.8,249.6 148.8,253.7 148.8,257.7 148.8,261.8 148.8,265.8 148.8,269.9 148.8,273.9 148.8,278.0 148.8,282.0 148.8,286.1 148.8,290.1 148.8,294.2 148.8,298.2 148.8,302.3 148.8,306.3 148.8,310.4 144.1,310.4 139.4,310.4 134.6,310.4 129.9,310.4 125.1,310.4 120.4,310.4 115.6,310.4 110.9,310.4 106.2,310.4 101.4,310.4 96.7,310.4 91.9,310.4 87.2,310.4 82.4,310.4 77.7,310.4 77.7,306.3 77.7,302.3 77.7,298.2 77.7,294.2 77.7,290.1 77.7,286.1 77.7,282.0 77.7,278.0 77.7,273.9 77.7,269.9 77.7,265.8 77.7,261.8 77.7,257.7 77.7,253.7" class="gold stroke-gold" opacity="0.72" stroke-width="2.2"/>
<polygon points="148.8,249.6 153.6,249.6 158.3,249.6 163.1,249.6 167.8,249.6 172.6,249.6 177.3,249.6 182.1,249.6 186.8,249.6 191.5,249.6 196.3,249.6 201.0,249.6 205.8,249.6 210.5,249.6 215.3,249.6 220.0,249.6 220.0,253.7 220.0,257.7 220.0,261.8 220.0,265.8 220.0,269.9 220.0,273.9 220.0,278.0 220.0,282.0 220.0,286.1 220.0,290.1 220.0,294.2 220.0,298.2 220.0,302.3 220.0,306.3 220.0,310.4 215.3,310.4 210.5,310.4 205.8,310.4 201.0,310.4 196.3,310.4 191.5,310.4 186.8,310.4 182.1,310.4 177.3,310.4 172.6,310.4 167.8,310.4 163.1,310.4 158.3,310.4 153.6,310.4 148.8,310.4 148.8,306.3 148.8,302.3 148.8,298.2 148.8,294.2 148.8,290.1 148.8,286.1 148.8,282.0 148.8,278.0 148.8,273.9 148.8,269.9 148.8,265.8 148.8,261.8 148.8,257.7 148.8,253.7" class="gold stroke-gold" opacity="0.72" stroke-width="2.2"/>
<polygon points="220.0,249.6 224.7,249.6 229.5,249.6 234.2,249.6 239.0,249.6 243.7,249.6 248.5,249.6 253.2,249.6 257.9,249.6 262.7,249.6 267.4,249.6 272.2,249.6 276.9,249.6 281.7,249.6 286.4,249.6 291.2,249.6 291.2,253.7 291.2,257.7 291.2,261.8 291.2,265.8 291.2,269.9 291.2,273.9 291.2,278.0 291.2,282.0 291.2,286.1 291.2,290.1 291.2,294.2 291.2,298.2 291.2,302.3 291.2,306.3 291.2,310.4 286.4,310.4 281.7,310.4 276.9,310.4 272.2,310.4 267.4,310.4 262.7,310.4 257.9,310.4 253.2,310.4 248.5,310.4 243.7,310.4 239.0,310.4 234.2,310.4 229.5,310.4 224.7,310.4 220.0,310.4 220.0,306.3 220.0,302.3 220.0,298.2 220.0,294.2 220.0,290.1 220.0,286.1 220.0,282.0 220.0,278.0 220.0,273.9 220.0,269.9 220.0,265.8 220.0,261.8 220.0,257.7 220.0,253.7" class="coral stroke-coral" opacity="0.72" stroke-width="2.2"/>
<polygon points="291.2,249.6 295.9,249.6 300.6,249.6 305.4,249.6 310.1,249.6 314.9,249.6 319.6,249.6 324.4,249.6 329.1,249.6 333.8,249.6 338.6,249.6 343.3,249.6 348.1,249.6 352.8,249.6 357.6,249.6 362.3,249.6 362.3,253.7 362.3,257.7 362.3,261.8 362.3,265.8 362.3,269.9 362.3,273.9 362.3,278.0 362.3,282.0 362.3,286.1 362.3,290.1 362.3,294.2 362.3,298.2 362.3,302.3 362.3,306.3 362.3,310.4 357.6,310.4 352.8,310.4 348.1,310.4 343.3,310.4 338.6,310.4 333.8,310.4 329.1,310.4 324.4,310.4 319.6,310.4 314.9,310.4 310.1,310.4 305.4,310.4 300.6,310.4 295.9,310.4 291.2,310.4 291.2,306.3 291.2,302.3 291.2,298.2 291.2,294.2 291.2,290.1 291.2,286.1 291.2,282.0 291.2,278.0 291.2,273.9 291.2,269.9 291.2,265.8 291.2,261.8 291.2,257.7 291.2,253.7" class="coral stroke-coral" opacity="0.72" stroke-width="2.2"/>
<line x1="113.3" y1="280.0" x2="184.4" y2="280.0" stroke="#172033" stroke-width="3" marker-end="url(#arrowhead)"/>
<line x1="184.4" y1="280.0" x2="255.6" y2="280.0" stroke="#172033" stroke-width="3" marker-end="url(#arrowhead)"/>
<line x1="255.6" y1="280.0" x2="326.7" y2="280.0" stroke="#172033" stroke-width="3" marker-end="url(#arrowhead)"/>
<circle cx="113.3" cy="280.0" r="14" fill="#f7f9fc" stroke="#172033" stroke-width="1.8"/>
<text x="113.3" y="285.0" class="ink" text-anchor="middle" font-size="12" font-weight="700">1</text>
<text x="113.3" y="260.0" class="ink" text-anchor="middle" font-size="12" font-weight="700">Q54</text>
<circle cx="184.4" cy="280.0" r="14" fill="#f7f9fc" stroke="#172033" stroke-width="1.8"/>
<text x="184.4" y="285.0" class="ink" text-anchor="middle" font-size="12" font-weight="700">2</text>
<text x="184.4" y="260.0" class="ink" text-anchor="middle" font-size="12" font-weight="700">Q55</text>
<circle cx="255.6" cy="280.0" r="14" fill="#f7f9fc" stroke="#172033" stroke-width="1.8"/>
<text x="255.6" y="285.0" class="ink" text-anchor="middle" font-size="12" font-weight="700">3</text>
<text x="255.6" y="260.0" class="ink" text-anchor="middle" font-size="12" font-weight="700">R33</text>
<circle cx="326.7" cy="280.0" r="14" fill="#f7f9fc" stroke="#172033" stroke-width="1.8"/>
<text x="326.7" y="285.0" class="ink" text-anchor="middle" font-size="12" font-weight="700">4</text>
<text x="326.7" y="260.0" class="ink" text-anchor="middle" font-size="12" font-weight="700">R34</text>
</g>
<text x="220.0" y="485.0" class="ink" text-anchor="middle" font-size="13" font-weight="700">Q54 → Q55 → R33 → R34</text>
<text x="220.0" y="507.0" class="muted" text-anchor="middle" font-size="12" font-weight="500">Q → R while moving east</text>
<rect x="432.0" y="70.0" width="386.0" height="450.0" rx="12.0" class="panel"/>
<text x="625.0" y="96.0" class="ink" text-anchor="middle" font-size="17" font-weight="700">antimeridian</text>
<g clip-path="url(#map-clip-1)">
<line x1="411.5" y1="393.8" x2="411.5" y2="166.2" class="grid" stroke-width="0.7" stroke-dasharray="4 5"/>
<line x1="482.7" y1="393.8" x2="482.7" y2="166.2" class="grid" stroke-width="0.7" stroke-dasharray="4 5"/>
<line x1="553.8" y1="393.8" x2="553.8" y2="166.2" class="grid" stroke-width="0.7" stroke-dasharray="4 5"/>
<line x1="625.0" y1="393.8" x2="625.0" y2="166.2" class="grid" stroke-width="0.7" stroke-dasharray="4 5"/>
<line x1="696.2" y1="393.8" x2="696.2" y2="166.2" class="grid" stroke-width="0.7" stroke-dasharray="4 5"/>
<line x1="767.3" y1="393.8" x2="767.3" y2="166.2" class="grid" stroke-width="0.7" stroke-dasharray="4 5"/>
<line x1="838.5" y1="393.8" x2="838.5" y2="166.2" class="grid" stroke-width="0.7" stroke-dasharray="4 5"/>
<line x1="440.0" y1="422.3" x2="810.0" y2="422.3" class="grid" stroke-width="0.7" stroke-dasharray="4 5"/>
<line x1="440.0" y1="351.2" x2="810.0" y2="351.2" class="grid" stroke-width="0.7" stroke-dasharray="4 5"/>
<line x1="440.0" y1="280.0" x2="810.0" y2="280.0" class="grid" stroke-width="0.7" stroke-dasharray="4 5"/>
<line x1="440.0" y1="208.8" x2="810.0" y2="208.8" class="grid" stroke-width="0.7" stroke-dasharray="4 5"/>
<line x1="440.0" y1="137.7" x2="810.0" y2="137.7" class="grid" stroke-width="0.7" stroke-dasharray="4 5"/>
<polygon points="625.0,188.2 629.7,188.2 634.5,188.2 639.2,188.2 644.0,188.2 648.7,188.2 653.5,188.2 658.2,188.2 662.9,188.2 667.7,188.2 672.4,188.2 677.2,188.2 681.9,188.2 686.7,188.2 691.4,188.2 696.2,188.2 696.2,192.4 696.2,196.5 696.2,200.6 696.2,204.8 696.2,208.9 696.2,213.0 696.2,217.1 696.2,221.2 696.2,225.2 696.2,229.3 696.2,233.4 696.2,237.5 696.2,241.5 696.2,245.6 696.2,249.6 691.4,249.6 686.7,249.6 681.9,249.6 677.2,249.6 672.4,249.6 667.7,249.6 662.9,249.6 658.2,249.6 653.5,249.6 648.7,249.6 644.0,249.6 639.2,249.6 634.5,249.6 629.7,249.6 625.0,249.6 625.0,245.6 625.0,241.5 625.0,237.5 625.0,233.4 625.0,229.3 625.0,225.2 625.0,221.2 625.0,217.1 625.0,213.0 625.0,208.9 625.0,204.8 625.0,200.6 625.0,196.5 625.0,192.4" fill="#93a4bd" opacity="0.10" stroke="#75849a" stroke-width="0.8"/>
<polygon points="696.2,188.2 700.9,188.2 705.6,188.2 710.4,188.2 715.1,188.2 719.9,188.2 724.6,188.2 729.4,188.2 734.1,188.2 738.8,188.2 743.6,188.2 748.3,188.2 753.1,188.2 757.8,188.2 762.6,188.2 767.3,188.2 767.3,192.4 767.3,196.5 767.3,200.6 767.3,204.8 767.3,208.9 767.3,213.0 767.3,217.1 767.3,221.2 767.3,225.2 767.3,229.3 767.3,233.4 767.3,237.5 767.3,241.5 767.3,245.6 767.3,249.6 762.6,249.6 757.8,249.6 753.1,249.6 748.3,249.6 743.6,249.6 738.8,249.6 734.1,249.6 729.4,249.6 724.6,249.6 719.9,249.6 715.1,249.6 710.4,249.6 705.6,249.6 700.9,249.6 696.2,249.6 696.2,245.6 696.2,241.5 696.2,237.5 696.2,233.4 696.2,229.3 696.2,225.2 696.2,221.2 696.2,217.1 696.2,213.0 696.2,208.9 696.2,204.8 696.2,200.6 696.2,196.5 696.2,192.4" fill="#93a4bd" opacity="0.10" stroke="#75849a" stroke-width="0.8"/>
<polygon points="625.0,249.6 629.7,249.6 634.5,249.6 639.2,249.6 644.0,249.6 648.7,249.6 653.5,249.6 658.2,249.6 662.9,249.6 667.7,249.6 672.4,249.6 677.2,249.6 681.9,249.6 686.7,249.6 691.4,249.6 696.2,249.6 696.2,253.7 696.2,257.7 696.2,261.8 696.2,265.8 696.2,269.9 696.2,273.9 696.2,278.0 696.2,282.0 696.2,286.1 696.2,290.1 696.2,294.2 696.2,298.2 696.2,302.3 696.2,306.3 696.2,310.4 691.4,310.4 686.7,310.4 681.9,310.4 677.2,310.4 672.4,310.4 667.7,310.4 662.9,310.4 658.2,310.4 653.5,310.4 648.7,310.4 644.0,310.4 639.2,310.4 634.5,310.4 629.7,310.4 625.0,310.4 625.0,306.3 625.0,302.3 625.0,298.2 625.0,294.2 625.0,290.1 625.0,286.1 625.0,282.0 625.0,278.0 625.0,273.9 625.0,269.9 625.0,265.8 625.0,261.8 625.0,257.7 625.0,253.7" fill="#93a4bd" opacity="0.10" stroke="#75849a" stroke-width="0.8"/>
<polygon points="696.2,249.6 700.9,249.6 705.6,249.6 710.4,249.6 715.1,249.6 719.9,249.6 724.6,249.6 729.4,249.6 734.1,249.6 738.8,249.6 743.6,249.6 748.3,249.6 753.1,249.6 757.8,249.6 762.6,249.6 767.3,249.6 767.3,253.7 767.3,257.7 767.3,261.8 767.3,265.8 767.3,269.9 767.3,273.9 767.3,278.0 767.3,282.0 767.3,286.1 767.3,290.1 767.3,294.2 767.3,298.2 767.3,302.3 767.3,306.3 767.3,310.4 762.6,310.4 757.8,310.4 753.1,310.4 748.3,310.4 743.6,310.4 738.8,310.4 734.1,310.4 729.4,310.4 724.6,310.4 719.9,310.4 715.1,310.4 710.4,310.4 705.6,310.4 700.9,310.4 696.2,310.4 696.2,306.3 696.2,302.3 696.2,298.2 696.2,294.2 696.2,290.1 696.2,286.1 696.2,282.0 696.2,278.0 696.2,273.9 696.2,269.9 696.2,265.8 696.2,261.8 696.2,257.7 696.2,253.7" fill="#93a4bd" opacity="0.10" stroke="#75849a" stroke-width="0.8"/>
<polygon points="767.3,249.6 772.1,249.6 776.8,249.6 781.5,249.6 786.3,249.6 791.0,249.6 795.8,249.6 800.5,249.6 805.3,249.6 810.0,249.6 814.7,249.6 819.5,249.6 824.2,249.6 829.0,249.6 833.7,249.6 838.5,249.6 838.5,253.7 838.5,257.7 838.5,261.8 838.5,265.8 838.5,269.9 838.5,273.9 838.5,278.0 838.5,282.0 838.5,286.1 838.5,290.1 838.5,294.2 838.5,298.2 838.5,302.3 838.5,306.3 838.5,310.4 833.7,310.4 829.0,310.4 824.2,310.4 819.5,310.4 814.7,310.4 810.0,310.4 805.3,310.4 800.5,310.4 795.8,310.4 791.0,310.4 786.3,310.4 781.5,310.4 776.8,310.4 772.1,310.4 767.3,310.4 767.3,306.3 767.3,302.3 767.3,298.2 767.3,294.2 767.3,290.1 767.3,286.1 767.3,282.0 767.3,278.0 767.3,273.9 767.3,269.9 767.3,265.8 767.3,261.8 767.3,257.7 767.3,253.7" fill="#93a4bd" opacity="0.10" stroke="#75849a" stroke-width="0.8"/>
<polygon points="625.0,310.4 629.7,310.4 634.5,310.4 639.2,310.4 644.0,310.4 648.7,310.4 653.5,310.4 658.2,310.4 662.9,310.4 667.7,310.4 672.4,310.4 677.2,310.4 681.9,310.4 686.7,310.4 691.4,310.4 696.2,310.4 696.2,314.4 696.2,318.5 696.2,322.5 696.2,326.6 696.2,330.7 696.2,334.8 696.2,338.8 696.2,342.9 696.2,347.0 696.2,351.1 696.2,355.2 696.2,359.4 696.2,363.5 696.2,367.6 696.2,371.8 691.4,371.8 686.7,371.8 681.9,371.8 677.2,371.8 672.4,371.8 667.7,371.8 662.9,371.8 658.2,371.8 653.5,371.8 648.7,371.8 644.0,371.8 639.2,371.8 634.5,371.8 629.7,371.8 625.0,371.8 625.0,367.6 625.0,363.5 625.0,359.4 625.0,355.2 625.0,351.1 625.0,347.0 625.0,342.9 625.0,338.8 625.0,334.8 625.0,330.7 625.0,326.6 625.0,322.5 625.0,318.5 625.0,314.4" fill="#93a4bd" opacity="0.10" stroke="#75849a" stroke-width="0.8"/>
<polygon points="696.2,310.4 700.9,310.4 705.6,310.4 710.4,310.4 715.1,310.4 719.9,310.4 724.6,310.4 729.4,310.4 734.1,310.4 738.8,310.4 743.6,310.4 748.3,310.4 753.1,310.4 757.8,310.4 762.6,310.4 767.3,310.4 767.3,314.4 767.3,318.5 767.3,322.5 767.3,326.6 767.3,330.7 767.3,334.8 767.3,338.8 767.3,342.9 767.3,347.0 767.3,351.1 767.3,355.2 767.3,359.4 767.3,363.5 767.3,367.6 767.3,371.8 762.6,371.8 757.8,371.8 753.1,371.8 748.3,371.8 743.6,371.8 738.8,371.8 734.1,371.8 729.4,371.8 724.6,371.8 719.9,371.8 715.1,371.8 710.4,371.8 705.6,371.8 700.9,371.8 696.2,371.8 696.2,367.6 696.2,363.5 696.2,359.4 696.2,355.2 696.2,351.1 696.2,347.0 696.2,342.9 696.2,338.8 696.2,334.8 696.2,330.7 696.2,326.6 696.2,322.5 696.2,318.5 696.2,314.4" fill="#93a4bd" opacity="0.10" stroke="#75849a" stroke-width="0.8"/>
<polygon points="482.7,188.2 487.4,188.2 492.2,188.2 496.9,188.2 501.7,188.2 506.4,188.2 511.2,188.2 515.9,188.2 520.6,188.2 525.4,188.2 530.1,188.2 534.9,188.2 539.6,188.2 544.4,188.2 549.1,188.2 553.8,188.2 553.8,192.4 553.8,196.5 553.8,200.6 553.8,204.8 553.8,208.9 553.8,213.0 553.8,217.1 553.8,221.2 553.8,225.2 553.8,229.3 553.8,233.4 553.8,237.5 553.8,241.5 553.8,245.6 553.8,249.6 549.1,249.6 544.4,249.6 539.6,249.6 534.9,249.6 530.1,249.6 525.4,249.6 520.6,249.6 515.9,249.6 511.2,249.6 506.4,249.6 501.7,249.6 496.9,249.6 492.2,249.6 487.4,249.6 482.7,249.6 482.7,245.6 482.7,241.5 482.7,237.5 482.7,233.4 482.7,229.3 482.7,225.2 482.7,221.2 482.7,217.1 482.7,213.0 482.7,208.9 482.7,204.8 482.7,200.6 482.7,196.5 482.7,192.4" fill="#93a4bd" opacity="0.10" stroke="#75849a" stroke-width="0.8"/>
<polygon points="553.8,188.2 558.6,188.2 563.3,188.2 568.1,188.2 572.8,188.2 577.6,188.2 582.3,188.2 587.1,188.2 591.8,188.2 596.5,188.2 601.3,188.2 606.0,188.2 610.8,188.2 615.5,188.2 620.3,188.2 625.0,188.2 625.0,192.4 625.0,196.5 625.0,200.6 625.0,204.8 625.0,208.9 625.0,213.0 625.0,217.1 625.0,221.2 625.0,225.2 625.0,229.3 625.0,233.4 625.0,237.5 625.0,241.5 625.0,245.6 625.0,249.6 620.3,249.6 615.5,249.6 610.8,249.6 606.0,249.6 601.3,249.6 596.5,249.6 591.8,249.6 587.1,249.6 582.3,249.6 577.6,249.6 572.8,249.6 568.1,249.6 563.3,249.6 558.6,249.6 553.8,249.6 553.8,245.6 553.8,241.5 553.8,237.5 553.8,233.4 553.8,229.3 553.8,225.2 553.8,221.2 553.8,217.1 553.8,213.0 553.8,208.9 553.8,204.8 553.8,200.6 553.8,196.5 553.8,192.4" fill="#93a4bd" opacity="0.10" stroke="#75849a" stroke-width="0.8"/>
<polygon points="411.5,249.6 416.3,249.6 421.0,249.6 425.8,249.6 430.5,249.6 435.3,249.6 440.0,249.6 444.7,249.6 449.5,249.6 454.2,249.6 459.0,249.6 463.7,249.6 468.5,249.6 473.2,249.6 477.9,249.6 482.7,249.6 482.7,253.7 482.7,257.7 482.7,261.8 482.7,265.8 482.7,269.9 482.7,273.9 482.7,278.0 482.7,282.0 482.7,286.1 482.7,290.1 482.7,294.2 482.7,298.2 482.7,302.3 482.7,306.3 482.7,310.4 477.9,310.4 473.2,310.4 468.5,310.4 463.7,310.4 459.0,310.4 454.2,310.4 449.5,310.4 444.7,310.4 440.0,310.4 435.3,310.4 430.5,310.4 425.8,310.4 421.0,310.4 416.3,310.4 411.5,310.4 411.5,306.3 411.5,302.3 411.5,298.2 411.5,294.2 411.5,290.1 411.5,286.1 411.5,282.0 411.5,278.0 411.5,273.9 411.5,269.9 411.5,265.8 411.5,261.8 411.5,257.7 411.5,253.7" fill="#93a4bd" opacity="0.10" stroke="#75849a" stroke-width="0.8"/>
<polygon points="482.7,249.6 487.4,249.6 492.2,249.6 496.9,249.6 501.7,249.6 506.4,249.6 511.2,249.6 515.9,249.6 520.6,249.6 525.4,249.6 530.1,249.6 534.9,249.6 539.6,249.6 544.4,249.6 549.1,249.6 553.8,249.6 553.8,253.7 553.8,257.7 553.8,261.8 553.8,265.8 553.8,269.9 553.8,273.9 553.8,278.0 553.8,282.0 553.8,286.1 553.8,290.1 553.8,294.2 553.8,298.2 553.8,302.3 553.8,306.3 553.8,310.4 549.1,310.4 544.4,310.4 539.6,310.4 534.9,310.4 530.1,310.4 525.4,310.4 520.6,310.4 515.9,310.4 511.2,310.4 506.4,310.4 501.7,310.4 496.9,310.4 492.2,310.4 487.4,310.4 482.7,310.4 482.7,306.3 482.7,302.3 482.7,298.2 482.7,294.2 482.7,290.1 482.7,286.1 482.7,282.0 482.7,278.0 482.7,273.9 482.7,269.9 482.7,265.8 482.7,261.8 482.7,257.7 482.7,253.7" fill="#93a4bd" opacity="0.10" stroke="#75849a" stroke-width="0.8"/>
<polygon points="553.8,249.6 558.6,249.6 563.3,249.6 568.1,249.6 572.8,249.6 577.6,249.6 582.3,249.6 587.1,249.6 591.8,249.6 596.5,249.6 601.3,249.6 606.0,249.6 610.8,249.6 615.5,249.6 620.3,249.6 625.0,249.6 625.0,253.7 625.0,257.7 625.0,261.8 625.0,265.8 625.0,269.9 625.0,273.9 625.0,278.0 625.0,282.0 625.0,286.1 625.0,290.1 625.0,294.2 625.0,298.2 625.0,302.3 625.0,306.3 625.0,310.4 620.3,310.4 615.5,310.4 610.8,310.4 606.0,310.4 601.3,310.4 596.5,310.4 591.8,310.4 587.1,310.4 582.3,310.4 577.6,310.4 572.8,310.4 568.1,310.4 563.3,310.4 558.6,310.4 553.8,310.4 553.8,306.3 553.8,302.3 553.8,298.2 553.8,294.2 553.8,290.1 553.8,286.1 553.8,282.0 553.8,278.0 553.8,273.9 553.8,269.9 553.8,265.8 553.8,261.8 553.8,257.7 553.8,253.7" fill="#93a4bd" opacity="0.10" stroke="#75849a" stroke-width="0.8"/>
<polygon points="482.7,310.4 487.4,310.4 492.2,310.4 496.9,310.4 501.7,310.4 506.4,310.4 511.2,310.4 515.9,310.4 520.6,310.4 525.4,310.4 530.1,310.4 534.9,310.4 539.6,310.4 544.4,310.4 549.1,310.4 553.8,310.4 553.8,314.4 553.8,318.5 553.8,322.5 553.8,326.6 553.8,330.7 553.8,334.8 553.8,338.8 553.8,342.9 553.8,347.0 553.8,351.1 553.8,355.2 553.8,359.4 553.8,363.5 553.8,367.6 553.8,371.8 549.1,371.8 544.4,371.8 539.6,371.8 534.9,371.8 530.1,371.8 525.4,371.8 520.6,371.8 515.9,371.8 511.2,371.8 506.4,371.8 501.7,371.8 496.9,371.8 492.2,371.8 487.4,371.8 482.7,371.8 482.7,367.6 482.7,363.5 482.7,359.4 482.7,355.2 482.7,351.1 482.7,347.0 482.7,342.9 482.7,338.8 482.7,334.8 482.7,330.7 482.7,326.6 482.7,322.5 482.7,318.5 482.7,314.4" fill="#93a4bd" opacity="0.10" stroke="#75849a" stroke-width="0.8"/>
<polygon points="553.8,310.4 558.6,310.4 563.3,310.4 568.1,310.4 572.8,310.4 577.6,310.4 582.3,310.4 587.1,310.4 591.8,310.4 596.5,310.4 601.3,310.4 606.0,310.4 610.8,310.4 615.5,310.4 620.3,310.4 625.0,310.4 625.0,314.4 625.0,318.5 625.0,322.5 625.0,326.6 625.0,330.7 625.0,334.8 625.0,338.8 625.0,342.9 625.0,347.0 625.0,351.1 625.0,355.2 625.0,359.4 625.0,363.5 625.0,367.6 625.0,371.8 620.3,371.8 615.5,371.8 610.8,371.8 606.0,371.8 601.3,371.8 596.5,371.8 591.8,371.8 587.1,371.8 582.3,371.8 577.6,371.8 572.8,371.8 568.1,371.8 563.3,371.8 558.6,371.8 553.8,371.8 553.8,367.6 553.8,363.5 553.8,359.4 553.8,355.2 553.8,351.1 553.8,347.0 553.8,342.9 553.8,338.8 553.8,334.8 553.8,330.7 553.8,326.6 553.8,322.5 553.8,318.5 553.8,314.4" fill="#93a4bd" opacity="0.10" stroke="#75849a" stroke-width="0.8"/>
<polygon points="482.7,249.6 487.4,249.6 492.2,249.6 496.9,249.6 501.7,249.6 506.4,249.6 511.2,249.6 515.9,249.6 520.6,249.6 525.4,249.6 530.1,249.6 534.9,249.6 539.6,249.6 544.4,249.6 549.1,249.6 553.8,249.6 553.8,253.7 553.8,257.7 553.8,261.8 553.8,265.8 553.8,269.9 553.8,273.9 553.8,278.0 553.8,282.0 553.8,286.1 553.8,290.1 553.8,294.2 553.8,298.2 553.8,302.3 553.8,306.3 553.8,310.4 549.1,310.4 544.4,310.4 539.6,310.4 534.9,310.4 530.1,310.4 525.4,310.4 520.6,310.4 515.9,310.4 511.2,310.4 506.4,310.4 501.7,310.4 496.9,310.4 492.2,310.4 487.4,310.4 482.7,310.4 482.7,306.3 482.7,302.3 482.7,298.2 482.7,294.2 482.7,290.1 482.7,286.1 482.7,282.0 482.7,278.0 482.7,273.9 482.7,269.9 482.7,265.8 482.7,261.8 482.7,257.7 482.7,253.7" class="coral stroke-coral" opacity="0.72" stroke-width="2.2"/>
<polygon points="553.8,249.6 558.6,249.6 563.3,249.6 568.1,249.6 572.8,249.6 577.6,249.6 582.3,249.6 587.1,249.6 591.8,249.6 596.5,249.6 601.3,249.6 606.0,249.6 610.8,249.6 615.5,249.6 620.3,249.6 625.0,249.6 625.0,253.7 625.0,257.7 625.0,261.8 625.0,265.8 625.0,269.9 625.0,273.9 625.0,278.0 625.0,282.0 625.0,286.1 625.0,290.1 625.0,294.2 625.0,298.2 625.0,302.3 625.0,306.3 625.0,310.4 620.3,310.4 615.5,310.4 610.8,310.4 606.0,310.4 601.3,310.4 596.5,310.4 591.8,310.4 587.1,310.4 582.3,310.4 577.6,310.4 572.8,310.4 568.1,310.4 563.3,310.4 558.6,310.4 553.8,310.4 553.8,306.3 553.8,302.3 553.8,298.2 553.8,294.2 553.8,290.1 553.8,286.1 553.8,282.0 553.8,278.0 553.8,273.9 553.8,269.9 553.8,265.8 553.8,261.8 553.8,257.7 553.8,253.7" class="coral stroke-coral" opacity="0.72" stroke-width="2.2"/>
<polygon points="625.0,249.6 629.7,249.6 634.5,249.6 639.2,249.6 644.0,249.6 648.7,249.6 653.5,249.6 658.2,249.6 662.9,249.6 667.7,249.6 672.4,249.6 677.2,249.6 681.9,249.6 686.7,249.6 691.4,249.6 696.2,249.6 696.2,253.7 696.2,257.7 696.2,261.8 696.2,265.8 696.2,269.9 696.2,273.9 696.2,278.0 696.2,282.0 696.2,286.1 696.2,290.1 696.2,294.2 696.2,298.2 696.2,302.3 696.2,306.3 696.2,310.4 691.4,310.4 686.7,310.4 681.9,310.4 677.2,310.4 672.4,310.4 667.7,310.4 662.9,310.4 658.2,310.4 653.5,310.4 648.7,310.4 644.0,310.4 639.2,310.4 634.5,310.4 629.7,310.4 625.0,310.4 625.0,306.3 625.0,302.3 625.0,298.2 625.0,294.2 625.0,290.1 625.0,286.1 625.0,282.0 625.0,278.0 625.0,273.9 625.0,269.9 625.0,265.8 625.0,261.8 625.0,257.7 625.0,253.7" class="blue stroke-blue" opacity="0.72" stroke-width="2.2"/>
<polygon points="696.2,249.6 700.9,249.6 705.6,249.6 710.4,249.6 715.1,249.6 719.9,249.6 724.6,249.6 729.4,249.6 734.1,249.6 738.8,249.6 743.6,249.6 748.3,249.6 753.1,249.6 757.8,249.6 762.6,249.6 767.3,249.6 767.3,253.7 767.3,257.7 767.3,261.8 767.3,265.8 767.3,269.9 767.3,273.9 767.3,278.0 767.3,282.0 767.3,286.1 767.3,290.1 767.3,294.2 767.3,298.2 767.3,302.3 767.3,306.3 767.3,310.4 762.6,310.4 757.8,310.4 753.1,310.4 748.3,310.4 743.6,310.4 738.8,310.4 734.1,310.4 729.4,310.4 724.6,310.4 719.9,310.4 715.1,310.4 710.4,310.4 705.6,310.4 700.9,310.4 696.2,310.4 696.2,306.3 696.2,302.3 696.2,298.2 696.2,294.2 696.2,290.1 696.2,286.1 696.2,282.0 696.2,278.0 696.2,273.9 696.2,269.9 696.2,265.8 696.2,261.8 696.2,257.7 696.2,253.7" class="blue stroke-blue" opacity="0.72" stroke-width="2.2"/>
<line x1="518.3" y1="280.0" x2="589.4" y2="280.0" stroke="#172033" stroke-width="3" marker-end="url(#arrowhead)"/>
<line x1="589.4" y1="280.0" x2="660.6" y2="280.0" stroke="#172033" stroke-width="3" marker-end="url(#arrowhead)"/>
<line x1="660.6" y1="280.0" x2="731.7" y2="280.0" stroke="#172033" stroke-width="3" marker-end="url(#arrowhead)"/>
<circle cx="518.3" cy="280.0" r="14" fill="#f7f9fc" stroke="#172033" stroke-width="1.8"/>
<text x="518.3" y="285.0" class="ink" text-anchor="middle" font-size="12" font-weight="700">1</text>
<text x="518.3" y="260.0" class="ink" text-anchor="middle" font-size="12" font-weight="700">R54</text>
<circle cx="589.4" cy="280.0" r="14" fill="#f7f9fc" stroke="#172033" stroke-width="1.8"/>
<text x="589.4" y="285.0" class="ink" text-anchor="middle" font-size="12" font-weight="700">2</text>
<text x="589.4" y="260.0" class="ink" text-anchor="middle" font-size="12" font-weight="700">R55</text>
<circle cx="660.6" cy="280.0" r="14" fill="#f7f9fc" stroke="#172033" stroke-width="1.8"/>
<text x="660.6" y="285.0" class="ink" text-anchor="middle" font-size="12" font-weight="700">3</text>
<text x="660.6" y="260.0" class="ink" text-anchor="middle" font-size="12" font-weight="700">O33</text>
<circle cx="731.7" cy="280.0" r="14" fill="#f7f9fc" stroke="#172033" stroke-width="1.8"/>
<text x="731.7" y="285.0" class="ink" text-anchor="middle" font-size="12" font-weight="700">4</text>
<text x="731.7" y="260.0" class="ink" text-anchor="middle" font-size="12" font-weight="700">O34</text>
</g>
<text x="625.0" y="485.0" class="ink" text-anchor="middle" font-size="13" font-weight="700">R54 → R55 → O33 → O34</text>
<text x="625.0" y="507.0" class="muted" text-anchor="middle" font-size="12" font-weight="500">R → O across +180° / −180°</text>
<rect x="837.0" y="70.0" width="386.0" height="450.0" rx="12.0" class="panel"/>
<text x="1030.0" y="96.0" class="ink" text-anchor="middle" font-size="17" font-weight="700">equatorial-to-polar seam</text>
<g clip-path="url(#map-clip-2)">
<line x1="785.8" y1="450.2" x2="785.8" y2="109.8" class="grid" stroke-width="0.7" stroke-dasharray="4 5"/>
<line x1="859.8" y1="450.2" x2="859.8" y2="109.8" class="grid" stroke-width="0.7" stroke-dasharray="4 5"/>
<line x1="933.8" y1="450.2" x2="933.8" y2="109.8" class="grid" stroke-width="0.7" stroke-dasharray="4 5"/>
<line x1="1007.8" y1="450.2" x2="1007.8" y2="109.8" class="grid" stroke-width="0.7" stroke-dasharray="4 5"/>
<line x1="1081.8" y1="450.2" x2="1081.8" y2="109.8" class="grid" stroke-width="0.7" stroke-dasharray="4 5"/>
<line x1="1155.8" y1="450.2" x2="1155.8" y2="109.8" class="grid" stroke-width="0.7" stroke-dasharray="4 5"/>
<line x1="1229.8" y1="450.2" x2="1229.8" y2="109.8" class="grid" stroke-width="0.7" stroke-dasharray="4 5"/>
<line x1="845.0" y1="450.2" x2="1215.0" y2="450.2" class="grid" stroke-width="0.7" stroke-dasharray="4 5"/>
<line x1="845.0" y1="376.2" x2="1215.0" y2="376.2" class="grid" stroke-width="0.7" stroke-dasharray="4 5"/>
<line x1="845.0" y1="302.2" x2="1215.0" y2="302.2" class="grid" stroke-width="0.7" stroke-dasharray="4 5"/>
<line x1="845.0" y1="228.2" x2="1215.0" y2="228.2" class="grid" stroke-width="0.7" stroke-dasharray="4 5"/>
<line x1="845.0" y1="154.2" x2="1215.0" y2="154.2" class="grid" stroke-width="0.7" stroke-dasharray="4 5"/>
<line x1="845.0" y1="80.2" x2="1215.0" y2="80.2" class="grid" stroke-width="0.7" stroke-dasharray="4 5"/>
<polygon points="1007.8,101.6 1012.7,101.6 1017.7,101.6 1022.6,101.6 1027.5,101.6 1032.5,101.6 1037.4,101.6 1042.3,101.6 1047.3,101.6 1052.2,101.6 1057.1,101.6 1062.1,101.6 1067.0,101.6 1071.9,101.6 1076.9,101.6 1081.8,101.6 1081.8,105.9 1081.8,110.3 1081.8,114.6 1081.8,119.0 1081.8,123.3 1081.8,127.7 1081.8,132.1 1081.8,136.5 1081.8,140.9 1081.8,145.3 1081.8,149.8 1081.8,154.2 1081.8,158.7 1081.8,163.2 1081.8,167.7 1076.9,167.7 1071.9,167.7 1067.0,167.7 1062.1,167.7 1057.1,167.7 1052.2,167.7 1047.3,167.7 1042.3,167.7 1037.4,167.7 1032.5,167.7 1027.5,167.7 1022.6,167.7 1017.7,167.7 1012.7,167.7 1007.8,167.7 1007.8,163.2 1007.8,158.7 1007.8,154.2 1007.8,149.8 1007.8,145.3 1007.8,140.9 1007.8,136.5 1007.8,132.1 1007.8,127.7 1007.8,123.3 1007.8,119.0 1007.8,114.6 1007.8,110.3 1007.8,105.9" fill="#93a4bd" opacity="0.10" stroke="#75849a" stroke-width="0.8"/>
<polygon points="933.8,167.7 938.7,167.7 943.7,167.7 948.6,167.7 953.5,167.7 958.5,167.7 963.4,167.7 968.3,167.7 973.3,167.7 978.2,167.7 983.1,167.7 988.1,167.7 993.0,167.7 997.9,167.7 1002.9,167.7 1007.8,167.7 1007.8,172.3 1007.8,176.8 1007.8,181.4 1007.8,186.0 1007.8,190.6 1007.8,195.2 1007.8,199.9 1007.8,204.6 1007.8,209.3 1007.8,214.0 1007.8,218.8 1007.8,223.6 1007.8,228.4 1007.8,233.3 1007.8,238.2 1002.9,238.2 997.9,238.2 993.0,238.2 988.1,238.2 983.1,238.2 978.2,238.2 973.3,238.2 968.3,238.2 963.4,238.2 958.5,238.2 953.5,238.2 948.6,238.2 943.7,238.2 938.7,238.2 933.8,238.2 933.8,233.3 933.8,228.4 933.8,223.6 933.8,218.8 933.8,214.0 933.8,209.3 933.8,204.6 933.8,199.9 933.8,195.2 933.8,190.6 933.8,186.0 933.8,181.4 933.8,176.8 933.8,172.3" fill="#93a4bd" opacity="0.10" stroke="#75849a" stroke-width="0.8"/>
<polygon points="1007.8,167.7 1012.7,167.7 1017.7,167.7 1022.6,167.7 1027.5,167.7 1032.5,167.7 1037.4,167.7 1042.3,167.7 1047.3,167.7 1052.2,167.7 1057.1,167.7 1062.1,167.7 1067.0,167.7 1071.9,167.7 1076.9,167.7 1081.8,167.7 1081.8,172.3 1081.8,176.8 1081.8,181.4 1081.8,186.0 1081.8,190.6 1081.8,195.2 1081.8,199.9 1081.8,204.6 1081.8,209.3 1081.8,214.0 1081.8,218.8 1081.8,223.6 1081.8,228.4 1081.8,233.3 1081.8,238.2 1076.9,238.2 1071.9,238.2 1067.0,238.2 1062.1,238.2 1057.1,238.2 1052.2,238.2 1047.3,238.2 1042.3,238.2 1037.4,238.2 1032.5,238.2 1027.5,238.2 1022.6,238.2 1017.7,238.2 1012.7,238.2 1007.8,238.2 1007.8,233.3 1007.8,228.4 1007.8,223.6 1007.8,218.8 1007.8,214.0 1007.8,209.3 1007.8,204.6 1007.8,199.9 1007.8,195.2 1007.8,190.6 1007.8,186.0 1007.8,181.4 1007.8,176.8 1007.8,172.3" fill="#93a4bd" opacity="0.10" stroke="#75849a" stroke-width="0.8"/>
<polygon points="933.8,238.2 938.7,238.2 943.7,238.2 948.6,238.2 953.5,238.2 958.5,238.2 963.4,238.2 968.3,238.2 973.3,238.2 978.2,238.2 983.1,238.2 988.1,238.2 993.0,238.2 997.9,238.2 1002.9,238.2 1007.8,238.2 1007.8,243.1 1007.8,248.1 1007.8,253.0 1007.8,258.1 1007.8,263.2 1007.8,268.3 1007.8,273.4 1007.8,278.6 1007.8,283.9 1007.8,289.2 1007.8,294.6 1007.8,300.0 1007.8,305.4 1007.8,311.0 1007.8,316.5 1002.9,316.5 997.9,316.5 993.0,316.5 988.1,316.5 983.1,316.5 978.2,316.5 973.3,316.5 968.3,316.5 963.4,316.5 958.5,316.5 953.5,316.5 948.6,316.5 943.7,316.5 938.7,316.5 933.8,316.5 933.8,311.0 933.8,305.4 933.8,300.0 933.8,294.6 933.8,289.2 933.8,283.9 933.8,278.6 933.8,273.4 933.8,268.3 933.8,263.2 933.8,258.1 933.8,253.0 933.8,248.1 933.8,243.1" fill="#93a4bd" opacity="0.10" stroke="#75849a" stroke-width="0.8"/>
<polygon points="1007.8,238.2 1012.7,238.2 1017.7,238.2 1022.6,238.2 1027.5,238.2 1032.5,238.2 1037.4,238.2 1042.3,238.2 1047.3,238.2 1052.2,238.2 1057.1,238.2 1062.1,238.2 1067.0,238.2 1071.9,238.2 1076.9,238.2 1081.8,238.2 1081.8,243.1 1081.8,248.1 1081.8,253.0 1081.8,258.1 1081.8,263.2 1081.8,268.3 1081.8,273.4 1081.8,278.6 1081.8,283.9 1081.8,289.2 1081.8,294.6 1081.8,300.0 1081.8,305.4 1081.8,311.0 1081.8,316.5 1076.9,316.5 1071.9,316.5 1067.0,316.5 1062.1,316.5 1057.1,316.5 1052.2,316.5 1047.3,316.5 1042.3,316.5 1037.4,316.5 1032.5,316.5 1027.5,316.5 1022.6,316.5 1017.7,316.5 1012.7,316.5 1007.8,316.5 1007.8,311.0 1007.8,305.4 1007.8,300.0 1007.8,294.6 1007.8,289.2 1007.8,283.9 1007.8,278.6 1007.8,273.4 1007.8,268.3 1007.8,263.2 1007.8,258.1 1007.8,253.0 1007.8,248.1 1007.8,243.1" fill="#93a4bd" opacity="0.10" stroke="#75849a" stroke-width="0.8"/>
<polygon points="1081.8,167.7 1086.7,167.7 1091.7,167.7 1096.6,167.7 1101.5,167.7 1106.5,167.7 1111.4,167.7 1116.3,167.7 1121.3,167.7 1126.2,167.7 1131.1,167.7 1136.1,167.7 1141.0,167.7 1145.9,167.7 1150.9,167.7 1155.8,167.7 1155.8,172.3 1155.8,176.8 1155.8,181.4 1155.8,186.0 1155.8,190.6 1155.8,195.2 1155.8,199.9 1155.8,204.6 1155.8,209.3 1155.8,214.0 1155.8,218.8 1155.8,223.6 1155.8,228.4 1155.8,233.3 1155.8,238.2 1150.9,238.2 1145.9,238.2 1141.0,238.2 1136.1,238.2 1131.1,238.2 1126.2,238.2 1121.3,238.2 1116.3,238.2 1111.4,238.2 1106.5,238.2 1101.5,238.2 1096.6,238.2 1091.7,238.2 1086.7,238.2 1081.8,238.2 1081.8,233.3 1081.8,228.4 1081.8,223.6 1081.8,218.8 1081.8,214.0 1081.8,209.3 1081.8,204.6 1081.8,199.9 1081.8,195.2 1081.8,190.6 1081.8,186.0 1081.8,181.4 1081.8,176.8 1081.8,172.3" fill="#93a4bd" opacity="0.10" stroke="#75849a" stroke-width="0.8"/>
<polygon points="1081.8,238.2 1086.7,238.2 1091.7,238.2 1096.6,238.2 1101.5,238.2 1106.5,238.2 1111.4,238.2 1116.3,238.2 1121.3,238.2 1126.2,238.2 1131.1,238.2 1136.1,238.2 1141.0,238.2 1145.9,238.2 1150.9,238.2 1155.8,238.2 1155.8,243.1 1155.8,248.1 1155.8,253.0 1155.8,258.1 1155.8,263.2 1155.8,268.3 1155.8,273.4 1155.8,278.6 1155.8,283.9 1155.8,289.2 1155.8,294.6 1155.8,300.0 1155.8,305.4 1155.8,311.0 1155.8,316.5 1150.9,316.5 1145.9,316.5 1141.0,316.5 1136.1,316.5 1131.1,316.5 1126.2,316.5 1121.3,316.5 1116.3,316.5 1111.4,316.5 1106.5,316.5 1101.5,316.5 1096.6,316.5 1091.7,316.5 1086.7,316.5 1081.8,316.5 1081.8,311.0 1081.8,305.4 1081.8,300.0 1081.8,294.6 1081.8,289.2 1081.8,283.9 1081.8,278.6 1081.8,273.4 1081.8,268.3 1081.8,263.2 1081.8,258.1 1081.8,253.0 1081.8,248.1 1081.8,243.1" fill="#93a4bd" opacity="0.10" stroke="#75849a" stroke-width="0.8"/>
<polygon points="1155.8,316.5 1160.7,316.5 1165.7,316.5 1170.6,316.5 1175.5,316.5 1180.5,316.5 1185.4,316.5 1190.3,316.5 1195.3,316.5 1200.2,316.5 1205.1,316.5 1210.1,316.5 1215.0,316.5 1219.9,316.5 1224.9,316.5 1229.8,316.5 1227.0,322.2 1224.2,327.7 1221.2,333.3 1218.1,338.9 1215.0,344.4 1211.8,350.0 1208.4,355.5 1204.9,361.0 1201.3,366.5 1197.6,371.9 1193.8,377.4 1189.8,382.9 1185.7,388.3 1181.4,393.7 1176.9,399.1 1170.6,399.1 1164.3,399.1 1157.9,399.1 1151.6,399.1 1145.2,399.1 1138.9,399.1 1132.5,399.1 1126.2,399.1 1119.9,399.1 1113.5,399.1 1107.2,399.1 1100.8,399.1 1094.5,399.1 1088.1,399.1 1081.8,399.1 1088.0,393.7 1094.0,388.3 1099.8,382.9 1105.4,377.4 1110.8,371.9 1116.0,366.5 1121.0,361.0 1125.8,355.5 1130.5,350.0 1135.1,344.4 1139.5,338.9 1143.8,333.3 1147.9,327.7 1151.9,322.2" fill="#93a4bd" opacity="0.10" stroke="#75849a" stroke-width="0.8"/>
<polygon points="986.7,399.1 993.0,399.1 999.3,399.1 1005.7,399.1 1012.0,399.1 1018.4,399.1 1024.7,399.1 1031.1,399.1 1037.4,399.1 1043.7,399.1 1050.1,399.1 1056.4,399.1 1062.8,399.1 1069.1,399.1 1075.5,399.1 1081.8,399.1 1088.1,399.1 1094.5,399.1 1100.8,399.1 1107.2,399.1 1113.5,399.1 1119.9,399.1 1126.2,399.1 1132.5,399.1 1138.9,399.1 1145.2,399.1 1151.6,399.1 1157.9,399.1 1164.3,399.1 1170.6,399.1 1176.9,399.1 1172.3,404.5 1167.5,409.9 1162.5,415.3 1157.3,420.6 1151.9,426.0 1146.3,431.3 1140.3,436.6 1134.2,442.0 1127.7,447.3 1121.0,452.6 1113.9,457.9 1106.5,463.1 1098.7,468.4 1090.4,473.7 1081.8,478.9 1073.2,473.7 1064.9,468.4 1057.1,463.1 1049.7,457.9 1042.6,452.6 1035.9,447.3 1029.4,442.0 1023.3,436.6 1017.3,431.3 1011.7,426.0 1006.3,420.6 1001.1,415.3 996.1,409.9 991.3,404.5" fill="#93a4bd" opacity="0.10" stroke="#75849a" stroke-width="0.8"/>
<polygon points="1007.8,316.5 1012.7,316.5 1017.7,316.5 1022.6,316.5 1027.5,316.5 1032.5,316.5 1037.4,316.5 1042.3,316.5 1047.3,316.5 1052.2,316.5 1057.1,316.5 1062.1,316.5 1067.0,316.5 1071.9,316.5 1076.9,316.5 1081.8,316.5 1086.7,316.5 1091.7,316.5 1096.6,316.5 1101.5,316.5 1106.5,316.5 1111.4,316.5 1116.3,316.5 1121.3,316.5 1126.2,316.5 1131.1,316.5 1136.1,316.5 1141.0,316.5 1145.9,316.5 1150.9,316.5 1155.8,316.5 1151.9,322.2 1147.9,327.7 1143.8,333.3 1139.5,338.9 1135.1,344.4 1130.5,350.0 1125.8,355.5 1121.0,361.0 1116.0,366.5 1110.8,371.9 1105.4,377.4 1099.8,382.9 1094.0,388.3 1088.0,393.7 1081.8,399.1 1075.6,393.7 1069.6,388.3 1063.8,382.9 1058.2,377.4 1052.8,371.9 1047.6,366.5 1042.6,361.0 1037.8,355.5 1033.1,350.0 1028.5,344.4 1024.1,338.9 1019.8,333.3 1015.7,327.7 1011.7,322.2" fill="#93a4bd" opacity="0.10" stroke="#75849a" stroke-width="0.8"/>
<polygon points="933.8,316.5 938.7,316.5 943.7,316.5 948.6,316.5 953.5,316.5 958.5,316.5 963.4,316.5 968.3,316.5 973.3,316.5 978.2,316.5 983.1,316.5 988.1,316.5 993.0,316.5 997.9,316.5 1002.9,316.5 1007.8,316.5 1011.7,322.2 1015.7,327.7 1019.8,333.3 1024.1,338.9 1028.5,344.4 1033.1,350.0 1037.8,355.5 1042.6,361.0 1047.6,366.5 1052.8,371.9 1058.2,377.4 1063.8,382.9 1069.6,388.3 1075.6,393.7 1081.8,399.1 1075.5,399.1 1069.1,399.1 1062.8,399.1 1056.4,399.1 1050.1,399.1 1043.7,399.1 1037.4,399.1 1031.1,399.1 1024.7,399.1 1018.4,399.1 1012.0,399.1 1005.7,399.1 999.3,399.1 993.0,399.1 986.7,399.1 982.2,393.7 977.9,388.3 973.8,382.9 969.8,377.4 966.0,371.9 962.3,366.5 958.7,361.0 955.2,355.5 951.8,350.0 948.6,344.4 945.5,338.9 942.4,333.3 939.4,327.7 936.6,322.2" fill="#93a4bd" opacity="0.10" stroke="#75849a" stroke-width="0.8"/>
<polygon points="859.8,316.5 864.7,316.5 869.7,316.5 874.6,316.5 879.5,316.5 884.5,316.5 889.4,316.5 894.3,316.5 899.3,316.5 904.2,316.5 909.1,316.5 914.1,316.5 919.0,316.5 923.9,316.5 928.9,316.5 933.8,316.5 936.6,322.2 939.4,327.7 942.4,333.3 945.5,338.9 948.6,344.4 951.8,350.0 955.2,355.5 958.7,361.0 962.3,366.5 966.0,371.9 969.8,377.4 973.8,382.9 977.9,388.3 982.2,393.7 986.7,399.1 980.3,399.1 974.0,399.1 967.6,399.1 961.3,399.1 954.9,399.1 948.6,399.1 942.3,399.1 935.9,399.1 929.6,399.1 923.2,399.1 916.9,399.1 910.5,399.1 904.2,399.1 897.9,399.1 891.5,399.1 888.8,393.7 886.3,388.3 883.8,382.9 881.4,377.4 879.1,371.9 876.9,366.5 874.7,361.0 872.6,355.5 870.6,350.0 868.7,344.4 866.8,338.9 865.0,333.3 863.2,327.7 861.5,322.2" fill="#93a4bd" opacity="0.10" stroke="#75849a" stroke-width="0.8"/>
<polygon points="1007.8,167.7 1012.7,167.7 1017.7,167.7 1022.6,167.7 1027.5,167.7 1032.5,167.7 1037.4,167.7 1042.3,167.7 1047.3,167.7 1052.2,167.7 1057.1,167.7 1062.1,167.7 1067.0,167.7 1071.9,167.7 1076.9,167.7 1081.8,167.7 1081.8,172.3 1081.8,176.8 1081.8,181.4 1081.8,186.0 1081.8,190.6 1081.8,195.2 1081.8,199.9 1081.8,204.6 1081.8,209.3 1081.8,214.0 1081.8,218.8 1081.8,223.6 1081.8,228.4 1081.8,233.3 1081.8,238.2 1076.9,238.2 1071.9,238.2 1067.0,238.2 1062.1,238.2 1057.1,238.2 1052.2,238.2 1047.3,238.2 1042.3,238.2 1037.4,238.2 1032.5,238.2 1027.5,238.2 1022.6,238.2 1017.7,238.2 1012.7,238.2 1007.8,238.2 1007.8,233.3 1007.8,228.4 1007.8,223.6 1007.8,218.8 1007.8,214.0 1007.8,209.3 1007.8,204.6 1007.8,199.9 1007.8,195.2 1007.8,190.6 1007.8,186.0 1007.8,181.4 1007.8,176.8 1007.8,172.3" class="gold stroke-gold" opacity="0.72" stroke-width="2.2"/>
<polygon points="1007.8,238.2 1012.7,238.2 1017.7,238.2 1022.6,238.2 1027.5,238.2 1032.5,238.2 1037.4,238.2 1042.3,238.2 1047.3,238.2 1052.2,238.2 1057.1,238.2 1062.1,238.2 1067.0,238.2 1071.9,238.2 1076.9,238.2 1081.8,238.2 1081.8,243.1 1081.8,248.1 1081.8,253.0 1081.8,258.1 1081.8,263.2 1081.8,268.3 1081.8,273.4 1081.8,278.6 1081.8,283.9 1081.8,289.2 1081.8,294.6 1081.8,300.0 1081.8,305.4 1081.8,311.0 1081.8,316.5 1076.9,316.5 1071.9,316.5 1067.0,316.5 1062.1,316.5 1057.1,316.5 1052.2,316.5 1047.3,316.5 1042.3,316.5 1037.4,316.5 1032.5,316.5 1027.5,316.5 1022.6,316.5 1017.7,316.5 1012.7,316.5 1007.8,316.5 1007.8,311.0 1007.8,305.4 1007.8,300.0 1007.8,294.6 1007.8,289.2 1007.8,283.9 1007.8,278.6 1007.8,273.4 1007.8,268.3 1007.8,263.2 1007.8,258.1 1007.8,253.0 1007.8,248.1 1007.8,243.1" class="gold stroke-gold" opacity="0.72" stroke-width="2.2"/>
<polygon points="1007.8,316.5 1012.7,316.5 1017.7,316.5 1022.6,316.5 1027.5,316.5 1032.5,316.5 1037.4,316.5 1042.3,316.5 1047.3,316.5 1052.2,316.5 1057.1,316.5 1062.1,316.5 1067.0,316.5 1071.9,316.5 1076.9,316.5 1081.8,316.5 1086.7,316.5 1091.7,316.5 1096.6,316.5 1101.5,316.5 1106.5,316.5 1111.4,316.5 1116.3,316.5 1121.3,316.5 1126.2,316.5 1131.1,316.5 1136.1,316.5 1141.0,316.5 1145.9,316.5 1150.9,316.5 1155.8,316.5 1151.9,322.2 1147.9,327.7 1143.8,333.3 1139.5,338.9 1135.1,344.4 1130.5,350.0 1125.8,355.5 1121.0,361.0 1116.0,366.5 1110.8,371.9 1105.4,377.4 1099.8,382.9 1094.0,388.3 1088.0,393.7 1081.8,399.1 1075.6,393.7 1069.6,388.3 1063.8,382.9 1058.2,377.4 1052.8,371.9 1047.6,366.5 1042.6,361.0 1037.8,355.5 1033.1,350.0 1028.5,344.4 1024.1,338.9 1019.8,333.3 1015.7,327.7 1011.7,322.2" class="violet stroke-violet" opacity="0.72" stroke-width="2.2"/>
<polygon points="933.8,316.5 938.7,316.5 943.7,316.5 948.6,316.5 953.5,316.5 958.5,316.5 963.4,316.5 968.3,316.5 973.3,316.5 978.2,316.5 983.1,316.5 988.1,316.5 993.0,316.5 997.9,316.5 1002.9,316.5 1007.8,316.5 1011.7,322.2 1015.7,327.7 1019.8,333.3 1024.1,338.9 1028.5,344.4 1033.1,350.0 1037.8,355.5 1042.6,361.0 1047.6,366.5 1052.8,371.9 1058.2,377.4 1063.8,382.9 1069.6,388.3 1075.6,393.7 1081.8,399.1 1075.5,399.1 1069.1,399.1 1062.8,399.1 1056.4,399.1 1050.1,399.1 1043.7,399.1 1037.4,399.1 1031.1,399.1 1024.7,399.1 1018.4,399.1 1012.0,399.1 1005.7,399.1 999.3,399.1 993.0,399.1 986.7,399.1 982.2,393.7 977.9,388.3 973.8,382.9 969.8,377.4 966.0,371.9 962.3,366.5 958.7,361.0 955.2,355.5 951.8,350.0 948.6,344.4 945.5,338.9 942.4,333.3 939.4,327.7 936.6,322.2" class="violet stroke-violet" opacity="0.72" stroke-width="2.2"/>
<line x1="1044.8" y1="202.5" x2="1044.8" y2="276.5" stroke="#172033" stroke-width="3" marker-end="url(#arrowhead)"/>
<line x1="1044.8" y1="276.5" x2="1081.8" y2="344.5" stroke="#172033" stroke-width="3" marker-end="url(#arrowhead)"/>
<line x1="1081.8" y1="344.5" x2="999.9" y2="358.1" stroke="#172033" stroke-width="3" marker-end="url(#arrowhead)"/>
<circle cx="1044.8" cy="202.5" r="14" fill="#f7f9fc" stroke="#172033" stroke-width="1.8"/>
<text x="1044.8" y="207.5" class="ink" text-anchor="middle" font-size="12" font-weight="700">1</text>
<text x="1044.8" y="182.5" class="ink" text-anchor="middle" font-size="12" font-weight="700">Q85</text>
<circle cx="1044.8" cy="276.5" r="14" fill="#f7f9fc" stroke="#172033" stroke-width="1.8"/>
<text x="1044.8" y="281.5" class="ink" text-anchor="middle" font-size="12" font-weight="700">2</text>
<text x="1044.8" y="256.5" class="ink" text-anchor="middle" font-size="12" font-weight="700">Q88</text>
<circle cx="1081.8" cy="344.5" r="14" fill="#f7f9fc" stroke="#172033" stroke-width="1.8"/>
<text x="1081.8" y="349.5" class="ink" text-anchor="middle" font-size="12" font-weight="700">3</text>
<text x="1081.8" y="324.5" class="ink" text-anchor="middle" font-size="12" font-weight="700">S66</text>
<circle cx="999.9" cy="358.1" r="14" fill="#f7f9fc" stroke="#172033" stroke-width="1.8"/>
<text x="999.9" y="363.1" class="ink" text-anchor="middle" font-size="12" font-weight="700">4</text>
<text x="999.9" y="338.1" class="ink" text-anchor="middle" font-size="12" font-weight="700">S67</text>
</g>
<text x="1030.0" y="485.0" class="ink" text-anchor="middle" font-size="13" font-weight="700">Q85 → Q88 → S66 → S67</text>
<text x="1030.0" y="507.0" class="muted" text-anchor="middle" font-size="12" font-weight="500">quad → dart with rotated directions</text>
<text x="620.0" y="558.0" class="muted" text-anchor="middle" font-size="14" font-weight="500">Arrows connect implementation-derived ellipsoidal centroids; surrounding cells come from grid_disk(cell, 1).</text>
<text x="620.0" y="582.0" class="muted" text-anchor="middle" font-size="14" font-weight="500">The antimeridian panel is locally unwrapped around 180°, as GIS software does for continuous wrapped geometry.</text>
</svg>
